<?xml version="1.0" encoding="UTF-8"?>
<svg id="Capa_1" xmlns="http://www.w3.org/2000/svg" xmlns:xlink="http://www.w3.org/1999/xlink" version="1.1" viewBox="0 0 871.05 118.11">
  <!-- Generator: Adobe Illustrator 30.5.1, SVG Export Plug-In . SVG Version: 2.1.4 Build 3)  -->
  <defs>
    <style>
      .st0 {
        fill: none;
      }

      .st1 {
        clip-path: url(#clippath-1);
      }

      .st2 {
        fill: #FDF9EA;
      }

      .st3 {
        clip-path: url(#clippath);
      }
    </style>
    <clipPath id="clippath">
      <rect class="st0" width="871.05" height="118.11"/>
    </clipPath>
    <clipPath id="clippath-1">
      <rect class="st0" width="871.05" height="118.11"/>
    </clipPath>
  </defs>
  <g id="Ilustración_10">
    <g class="st3">
      <g class="st1">
        <path class="st2" d="M574,29.83c.2-.2.46-.3.78-.3h15.12c.32,0,.59.11.8.32.22.22.33.5.33.86v56.68c0,.35-.11.64-.33.86-.22.22-.48.32-.8.32h-14.41c-.32,0-.58-.11-.8-.32-.22-.22-.33-.5-.33-.86v-28.63l-4.46,18.48c-.12.59-.5.88-1.13.88h-15.01c-.63,0-1.01-.29-1.13-.88l-4.41-18.48v28.63c0,.35-.12.64-.35.86-.24.22-.52.32-.84.32h-14.35c-.36,0-.65-.11-.86-.32-.22-.22-.33-.5-.33-.86V30.71c0-.36.11-.64.33-.86.22-.22.51-.32.86-.32h15.07c.32,0,.58.1.77.3,1.63,1.61,3.51,4.51,5.63,8.71,2.12,4.19,3.84,8,5.15,11.42l1.97,5.08c.2-.51.47-1.23.83-2.16.36-.92,1.05-2.61,2.08-5.08,1.03-2.46,2.04-4.73,3.01-6.82.97-2.08,2.09-4.21,3.36-6.38,1.27-2.16,2.42-3.76,3.46-4.78"/>
        <path class="st2" d="M614.83,30.68c3.89-1.63,7.97-2.45,12.24-2.45s8.34.82,12.23,2.45c3.89,1.63,7.24,3.83,10.06,6.59,2.82,2.76,5.06,6.03,6.73,9.83,1.67,3.8,2.5,7.78,2.5,11.96s-.83,8.17-2.5,11.99c-1.67,3.82-3.91,7.11-6.73,9.86-2.82,2.75-6.17,4.94-10.06,6.55-3.89,1.61-7.97,2.42-12.23,2.42s-8.35-.81-12.24-2.42c-3.89-1.61-7.24-3.8-10.06-6.55-2.82-2.75-5.06-6.04-6.73-9.86-1.67-3.82-2.5-7.82-2.5-11.99s.83-8.16,2.5-11.96c1.66-3.8,3.91-7.07,6.73-9.83,2.82-2.76,6.17-4.95,10.06-6.59M616.85,69.03c2.82,2.76,6.23,4.14,10.22,4.14s7.39-1.38,10.21-4.14c2.82-2.75,4.23-6.08,4.23-9.98s-1.41-7.22-4.23-9.98c-2.82-2.75-6.22-4.13-10.21-4.13s-7.4,1.38-10.22,4.13c-2.82,2.76-4.23,6.08-4.23,9.98s1.41,7.23,4.23,9.98"/>
        <path class="st2" d="M698.82,30.71c0-.36.11-.64.33-.86.22-.22.48-.32.8-.32h14.41c.32,0,.6.11.83.32.24.22.36.5.36.86v56.69c0,.31-.12.59-.36.82-.24.24-.52.36-.83.36h-14.89c-.44,0-.77-.2-1.01-.59l-18.64-32.71v32.12c0,.35-.12.64-.35.86-.24.22-.52.32-.84.32h-14.35c-.36,0-.65-.11-.86-.32-.22-.22-.33-.5-.33-.86V30.71c0-.36.11-.64.33-.86.22-.22.51-.32.86-.32h14.89c.43,0,.75.17.95.53l18.7,29.82v-29.17Z"/>
        <path class="st2" d="M844.08,52.32h.06c.27,0,.55-.01.83-.03.27-.02.76-.17,1.46-.44.69-.27,1.33-.66,1.9-1.15.58-.49,1.23-1.27,1.97-2.33.73-1.07,1.35-2.33,1.85-3.81.5-1.47.93-3.42,1.31-5.82.38-2.4.58-5.1.62-8.09,0-.31.11-.58.33-.8.21-.22.48-.32.8-.32h14.71c.32,0,.58.11.8.35.22.24.33.51.33.83,0,3.19-.21,6.19-.63,9-.41,2.82-.99,5.24-1.72,7.29-.73,2.05-1.57,3.95-2.5,5.7-.93,1.75-1.91,3.2-2.91,4.34-1.01,1.14-2.04,2.17-3.07,3.07-1.03.91-2.01,1.61-2.95,2.12-.93.51-1.77.93-2.5,1.24-.73.31-1.3.53-1.7.65l-.65.11v23.15c0,.35-.12.64-.36.86-.24.22-.52.32-.84.32h-14.35c-.32,0-.6-.11-.83-.32-.24-.22-.36-.5-.36-.86v-23.15c-.24-.04-.59-.11-1.04-.24-.46-.11-1.33-.5-2.62-1.15-1.29-.65-2.52-1.43-3.69-2.33-1.17-.91-2.47-2.25-3.9-4.04-1.43-1.79-2.66-3.8-3.69-6.03-1.03-2.22-1.91-5.06-2.62-8.5-.72-3.44-1.07-7.19-1.07-11.25,0-.31.11-.59.33-.83.22-.24.51-.35.86-.35h14.65c.32,0,.59.11.8.32.22.22.33.48.33.8.04,2.4.19,4.62.45,6.65.26,2.02.55,3.75.89,5.16.33,1.42.77,2.69,1.31,3.81.54,1.12,1.02,2.02,1.46,2.69.44.67.98,1.24,1.64,1.71.66.47,1.15.82,1.49,1.03.34.22.79.37,1.37.47.58.1.89.15.96.15h.51Z"/>
        <path class="st2" d="M772.46,88.58c.32,0,.59-.11.83-.35.24-.24.36-.51.36-.83-.16-6.85-1.5-12.61-4.02-17.27-2.52-4.67-5.79-8.35-9.79-11.07,4.01-2.72,7.27-6.41,9.79-11.07,2.52-4.67,3.86-10.43,4.02-17.28,0-.31-.12-.59-.36-.82-.24-.24-.52-.35-.83-.35h-15.01c-.32,0-.59.11-.8.32-.22.22-.33.49-.33.8-.32,13.19-6.15,20.14-17.51,20.84v-20.78c0-.35-.12-.64-.35-.86-.24-.22-.52-.32-.84-.32h-14.35c-.36,0-.65.11-.87.32-.22.22-.33.5-.33.86v56.69c0,.35.11.64.33.86.22.22.51.32.87.32h14.35c.32,0,.6-.11.84-.32.24-.22.35-.5.35-.86v-20.78c5.6.35,9.88,2.24,12.83,5.67,2.96,3.43,4.52,8.48,4.67,15.17,0,.31.11.58.33.8.21.22.48.32.8.32h15.01Z"/>
        <path class="st2" d="M807.6,64.96c0,.31-.11.58-.33.8-.22.22-.48.32-.8.32h-17.59v8.39h21.68c.32,0,.6.11.83.35.24.24.36.51.36.83v11.75c0,.35-.12.64-.36.86-.24.22-.52.32-.83.32h-29.17c-.7,0-1.3-.56-1.3-1.25h0c-.19-7.73-1.75-14.35-4.66-19.73-1.74-3.22-3.83-6.08-6.23-8.54,2.39-2.46,4.49-5.32,6.23-8.54,2.91-5.38,4.48-12,4.66-19.72h0c0-.71.6-1.27,1.3-1.27h29.17c.32,0,.6.11.83.32.24.22.36.5.36.86v11.75c0,.32-.12.59-.36.82-.24.24-.52.36-.83.36h-21.68v8.39h17.59c.32,0,.58.1.8.32.22.22.33.48.33.8"/>
        <path class="st2" d="M176.62,67.74l11.44,9.03c.24.2.38.45.42.76.04.32-.04.59-.24.83-2.92,3.58-6.49,6.4-10.7,8.45-4.21,2.04-8.72,3.07-13.54,3.07-4.23,0-8.26-.81-12.09-2.42-3.84-1.61-7.14-3.8-9.93-6.55-2.79-2.75-5-6.04-6.64-9.86-1.64-3.82-2.46-7.81-2.46-11.99s.82-8.16,2.46-11.96c1.64-3.8,3.86-7.07,6.64-9.83,2.79-2.76,6.09-4.95,9.93-6.58,3.83-1.63,7.86-2.45,12.09-2.45,4.78,0,9.29,1.03,13.52,3.07,4.23,2.05,7.78,4.84,10.67,8.38.19.28.27.57.24.89-.04.31-.18.57-.42.77l-11.44,8.97c-.24.2-.51.29-.8.27-.3-.02-.55-.15-.74-.39-1.38-1.54-3.05-2.79-5.01-3.78-1.96-.98-3.96-1.48-6.02-1.48-3.95,0-7.31,1.38-10.08,4.13-2.77,2.76-4.15,6.08-4.15,9.98s1.38,7.22,4.15,9.98c2.76,2.76,6.12,4.14,10.08,4.14,2.05,0,4.07-.49,6.04-1.47,1.98-.99,3.66-2.26,5.04-3.84.19-.24.45-.36.74-.38.3-.02.56.07.8.27"/>
        <path class="st2" d="M230.88,67.75c4.56,5.16,6.95,11.71,7.18,19.66,0,.31-.11.58-.32.81-.21.24-.5.35-.85.35h-15.12c-.31,0-.58-.1-.79-.32-.21-.21-.32-.48-.32-.79-.2-4.69-1.39-8.29-3.59-10.79-2.2-2.5-5.23-3.89-9.09-4.16v14.89c0,.31-.11.58-.35.81-.24.24-.51.35-.82.35h-14.07c-.35,0-.63-.11-.85-.35-.21-.23-.32-.51-.32-.81V30.7c0-.35.1-.63.32-.85.21-.21.5-.32.85-.32h27.68c2.45,0,4.71.43,6.77,1.28,2.07.85,3.9,2.12,5.49,3.81,1.6,1.69,2.84,3.87,3.74,6.55.89,2.68,1.34,5.74,1.34,9.19,0,7.91-2.3,13.71-6.89,17.4M207.99,44.66v12.39c0,.35.18.52.53.52h6.71c1.71,0,3.15-.61,4.29-1.83,1.15-1.22,1.72-2.85,1.72-4.89s-.58-3.67-1.72-4.89c-1.14-1.22-2.58-1.83-4.29-1.83h-6.71c-.35,0-.53.17-.53.52"/>
        <path class="st2" d="M260.33,30.68c3.87-1.63,7.93-2.45,12.18-2.45s8.3.82,12.18,2.45c3.87,1.63,7.21,3.83,10.02,6.59,2.8,2.76,5.04,6.03,6.7,9.83,1.66,3.8,2.49,7.78,2.49,11.96s-.83,8.17-2.49,11.99c-1.66,3.82-3.89,7.11-6.7,9.86-2.81,2.75-6.14,4.94-10.02,6.55-3.88,1.61-7.93,2.42-12.18,2.42s-8.31-.81-12.18-2.42c-3.87-1.61-7.21-3.8-10.02-6.55-2.81-2.75-5.04-6.04-6.7-9.86-1.66-3.82-2.49-7.82-2.49-11.99s.83-8.16,2.49-11.96c1.66-3.8,3.89-7.07,6.7-9.83,2.8-2.76,6.14-4.95,10.02-6.59M262.34,69.03c2.81,2.76,6.2,4.14,10.17,4.14s7.36-1.38,10.16-4.14c2.81-2.75,4.21-6.08,4.21-9.98s-1.4-7.22-4.21-9.98c-2.81-2.75-6.19-4.13-10.16-4.13s-7.36,1.38-10.17,4.13c-2.81,2.76-4.21,6.08-4.21,9.98s1.4,7.23,4.21,9.98"/>
        <path class="st2" d="M325.88,30.68c3.87-1.63,7.93-2.45,12.18-2.45s8.3.82,12.18,2.45c3.87,1.63,7.21,3.83,10.02,6.59,2.81,2.76,5.04,6.03,6.7,9.83,1.66,3.8,2.49,7.78,2.49,11.96s-.83,8.17-2.49,11.99c-1.66,3.82-3.89,7.11-6.7,9.86-2.8,2.75-6.14,4.94-10.02,6.55-3.88,1.61-7.93,2.42-12.18,2.42s-8.31-.81-12.18-2.42c-3.87-1.61-7.21-3.8-10.02-6.55-2.8-2.75-5.04-6.04-6.7-9.86-1.66-3.82-2.49-7.82-2.49-11.99s.83-8.16,2.49-11.96c1.66-3.8,3.89-7.07,6.7-9.83,2.8-2.76,6.14-4.95,10.02-6.59M327.9,69.03c2.81,2.76,6.2,4.14,10.17,4.14s7.36-1.38,10.16-4.14c2.81-2.75,4.21-6.08,4.21-9.98s-1.4-7.22-4.21-9.98c-2.81-2.75-6.19-4.13-10.16-4.13s-7.36,1.38-10.17,4.13c-2.81,2.76-4.21,6.08-4.21,9.98s1.4,7.23,4.21,9.98"/>
        <path class="st2" d="M491,29.53c3.68,0,7.05.58,10.11,1.74,3.06,1.16,5.79,2.89,8.18,5.19,2.39,2.31,4.26,5.39,5.6,9.24,1.34,3.86,2.02,8.31,2.02,13.35s-.68,9.48-2.02,13.34c-1.34,3.85-3.21,6.93-5.6,9.24-2.39,2.31-5.12,4.04-8.18,5.2-3.06,1.16-6.43,1.74-10.11,1.74h-22.46c-.36,0-.64-.11-.86-.32-.22-.22-.32-.5-.32-.86V30.71c0-.35.11-.64.32-.86.22-.22.51-.32.86-.32h22.46ZM487.27,74.58c3.79,0,6.87-1.29,9.24-3.9,2.38-2.6,3.56-6.49,3.56-11.69s-1.18-9.09-3.56-11.69c-2.37-2.6-5.45-3.9-9.24-3.9h-2.73c-.36,0-.54.2-.54.59v30.05c0,.35.18.53.54.53h2.73Z"/>
        <path class="st2" d="M422.47,88.58c.32,0,.59-.11.83-.35.24-.24.36-.51.36-.83-.16-6.85-1.49-12.61-4-17.27-2.51-4.67-5.76-8.35-9.75-11.07,3.99-2.72,7.24-6.41,9.75-11.07,2.51-4.67,3.84-10.43,4-17.28,0-.31-.12-.59-.36-.82-.24-.24-.51-.35-.83-.35h-14.94c-.32,0-.59.11-.8.32-.22.22-.33.49-.33.8-.31,13.19-6.12,20.14-17.43,20.84v-20.78c0-.35-.11-.64-.35-.86-.24-.22-.52-.32-.83-.32h-14.28c-.36,0-.64.11-.86.32-.22.22-.33.5-.33.86v56.69c0,.35.11.64.33.86.22.22.51.32.86.32h14.28c.32,0,.59-.11.83-.32.24-.22.35-.5.35-.86v-20.78c5.57.35,9.83,2.24,12.77,5.67,2.95,3.43,4.5,8.48,4.65,15.17,0,.31.11.58.33.8.21.22.48.32.8.32h14.94Z"/>
        <path class="st2" d="M457.45,64.96c0,.31-.11.58-.33.8-.22.22-.48.32-.8.32h-17.52v8.39h21.58c.31,0,.59.11.83.35.24.24.36.51.36.83v11.75c0,.35-.12.64-.36.86-.24.22-.51.32-.83.32h-29.04c-.7,0-1.29-.56-1.29-1.25h0c-.19-7.73-1.75-14.35-4.64-19.73-1.73-3.22-3.82-6.08-6.2-8.54,2.38-2.46,4.46-5.32,6.2-8.54,2.9-5.38,4.46-12,4.64-19.72h0c0-.71.59-1.27,1.29-1.27h29.04c.31,0,.59.11.83.32.24.22.36.5.36.86v11.75c0,.32-.12.59-.36.82-.24.24-.51.35-.83.35h-21.58v8.39h17.52c.32,0,.58.11.8.32.22.22.33.49.33.8"/>
        <path class="st2" d="M111.26,45.19l.32-1.96c.48-2.92-1.26-5.75-4.05-6.59-1.34-.41-3.5-1.02-6.15-1.62-2.88-.65-5.63-1.14-8.2-1.45-2.1-5.92-5.65-11.21-10.31-15.37-4.27-3.8-9.31-6.51-14.73-7.93.36-.24.76-.42,1.19-.51.71-.15,1.28-.66,1.51-1.34.23-.68.08-1.44-.39-1.98-.87-1.01-1.99-1.78-3.25-2.21-.77-.27-1.57-.4-2.39-.4-.66,0-1.32.09-1.95.27-1.76-2.54-4.63-4.1-7.76-4.1-1.02,0-2.04.17-3.01.5-1.59.55-3.02,1.51-4.11,2.79-.47.55-.61,1.3-.38,1.98.23.68.8,1.19,1.51,1.34,1.66.35,3.06,1.5,3.8,3.07-12.63,2.29-23.23,11.39-27.68,23.85-5.96.71-11.46,2.19-14.32,3.05-2.78.84-4.53,3.67-4.06,6.59l.29,1.82C2.86,47.04,0,51.52,0,56.46,0,60.27,1.64,63.83,4.5,66.24c.08.07.16.13.25.18.29.18.54.37.76.56,0,0,.02.02.03.03,1.22,1.07,1.93,2.65,1.92,4.32,0,.95-.23,1.89-.67,2.72,0,0,0,.02-.01.03l-.02.04s0,0,0,0c-.74,1.42-1.13,3.01-1.13,4.61,0,2.59.98,5.03,2.76,6.87,1.8,1.86,4.19,2.88,6.75,2.88.24,0,.49-.01.73-.03,3.41,8.39,9.01,15.57,16.28,20.85,7.92,5.75,17.24,8.79,26.96,8.8h.03c9.7,0,19.02-3.03,26.93-8.76,7.27-5.27,12.88-12.44,16.3-20.82.2.01.39.02.59.02,5.24,0,9.51-4.37,9.52-9.74,0-1.6-.39-3.19-1.13-4.61-.01-.02-.03-.05-.04-.08-.44-.85-.66-1.76-.66-2.72,0-1.67.7-3.25,1.93-4.32,0,0,.01-.01.02-.02.23-.21.48-.4.75-.56.09-.06.18-.12.27-.19,2.86-2.42,4.51-5.98,4.51-9.78,0-4.88-2.69-9.23-6.85-11.34M112.29,64.76c-.38.23-.74.49-1.07.79-1.6,1.41-2.62,3.51-2.62,5.85,0,1.33.33,2.58.9,3.67.01.02.03.05.04.07.57,1.09.9,2.34.9,3.67,0,4.26-3.35,7.7-7.48,7.7h0c-.66,0-1.29-.09-1.89-.26-6.43,17.43-22.78,29.82-41.93,29.82h-.03c-19.18-.01-35.54-12.44-41.94-29.91-.64.19-1.31.29-2.02.29h-.01c-4.12,0-7.47-3.46-7.47-7.71,0-1.33.33-2.58.9-3.67.01-.02.02-.04.03-.07.57-1.09.9-2.34.9-3.67,0-2.35-1.01-4.45-2.62-5.86-.33-.3-.69-.56-1.07-.79-2.31-1.95-3.78-4.91-3.78-8.22,0-4.83,3.13-8.9,7.41-10.18-.06-.19-.1-.38-.14-.58l-.46-2.86c-.31-1.92.82-3.77,2.63-4.31,2.7-.81,8.83-2.48,15.25-3.11,4.1-12.91,15.22-22.53,28.71-24.05-.06-.54-.17-1.09-.34-1.63-.87-2.7-3.06-4.58-5.58-5.12.84-.98,1.93-1.75,3.22-2.19.78-.27,1.57-.39,2.35-.39,2.93,0,5.67,1.79,6.86,4.66.85-.53,1.83-.83,2.85-.83.57,0,1.15.09,1.72.29.95.32,1.75.89,2.36,1.61-1.85.39-3.45,1.77-4.09,3.74-.01.04-.02.08-.03.12,12.67,2.15,22.99,11.49,26.88,23.82,2.86.28,5.96.8,9.26,1.55,2.58.59,4.69,1.19,6.02,1.58,1.81.54,2.94,2.4,2.62,4.31l-.46,2.85c-.04.23-.1.45-.17.66,4.14,1.38,7.14,5.38,7.14,10.11,0,3.31-1.47,6.27-3.78,8.22"/>
        <path class="st2" d="M33.56,30.51c.14.27.37.47.65.58.02,0,.04.02.06.03h0c.07.02.14.04.21.05.02,0,.05,0,.07,0,.04,0,.09,0,.13,0,.06,0,.12,0,.18-.02.03,0,.06,0,.08-.01.09-.02.17-.05.25-.1.25-.13,3.44-1.73,7.73-1.73,1.67,0,3.51.24,5.4.92.81.29,1.63.65,2.46,1.11.46.26.92.55,1.38.87.38.26.77.55,1.15.86.52.42,1.03.88,1.54,1.4,0,0,.01.01.02.02.27.27.53.55.8.85h0s.01.02.01.02c.08.08.16.17.25.26.62.62,1.48,1.33,2.49,1.59.03,0,.07.02.1.03.24.05.47.07.72.08.94,0,1.76-.45,2.44-.98.13-.1.25-.21.36-.31.07-.06.13-.12.2-.19.17-.17.33-.34.48-.49.25-.28.51-.55.76-.81.02-.02.04-.04.06-.06.24-.24.49-.47.73-.7.03-.03.06-.06.09-.08.24-.21.48-.42.72-.61.04-.03.07-.06.11-.09.24-.19.47-.37.71-.54.04-.03.08-.06.12-.09.24-.17.47-.33.71-.48.04-.03.08-.05.12-.08.24-.15.47-.29.71-.42.04-.02.07-.04.11-.06.24-.13.48-.26.72-.38.03-.01.06-.03.09-.04.25-.12.5-.23.74-.34.02,0,.03-.01.05-.02.25-.1.49-.2.74-.28.02,0,.04-.01.06-.02.24-.09.49-.16.73-.24.03,0,.06-.02.1-.03.23-.07.47-.13.7-.19.04-.01.08-.02.11-.03.23-.05.45-.1.68-.14.04,0,.08-.02.12-.02.22-.04.44-.08.66-.11.04,0,.08,0,.12-.02.22-.03.44-.05.66-.07.03,0,.07,0,.1,0,.22-.02.44-.03.66-.04.03,0,.05,0,.08,0,.22,0,.44-.01.66-.01h.03c.25,0,.5,0,.75.02.02,0,.04,0,.05,0,.24.01.47.03.7.05.02,0,.04,0,.06,0,.23.02.45.05.67.07.02,0,.04,0,.06,0,.22.03.43.06.64.1.02,0,.03,0,.05,0,.21.04.42.07.62.12.01,0,.02,0,.03,0,.21.04.41.09.6.13,0,0,.01,0,.01,0,.6.15,1.14.31,1.6.46h0c.15.05.3.1.43.15,0,0,0,0,.01,0,.13.05.26.1.37.14,0,0,.01,0,.02,0,.11.04.22.09.31.13,0,0,.01,0,.02,0,.09.04.18.08.26.11,0,0,0,0,0,0,.08.03.15.07.2.09,0,0,0,0,0,0,.12.06.19.09.23.11,0,0,0,0,0,0,.08.04.17.07.26.1.03,0,.06.01.09.02.06.01.12.02.18.02.05,0,.1,0,.15,0,.01,0,.03,0,.04,0,.07,0,.14-.02.2-.04.01,0,.03-.01.05-.02.05-.02.11-.04.16-.07.02,0,.03-.01.05-.02.06-.03.12-.07.17-.12,0,0,.02-.02.03-.02.05-.04.09-.08.13-.13.01-.01.03-.03.04-.04.04-.06.09-.12.12-.18h0c.06-.11.09-.22.11-.33.11-.52-.13-1.07-.62-1.33-.01,0-.03-.02-.05-.02-.03-.02-.07-.04-.12-.06-.08-.04-.18-.09-.3-.14-.25-.11-.59-.26-1-.41-.27-.11-.58-.22-.93-.33-.17-.06-.35-.11-.53-.17-1.14-.34-2.56-.65-4.17-.8-.23-.02-.47-.04-.7-.05-.34-.02-.69-.03-1.05-.03h-.1c-.06,0-.12,0-.18,0-.08,0-.15,0-.23,0-.06,0-.12,0-.18,0-.08,0-.15,0-.23,0-.06,0-.13,0-.19,0-.08,0-.16.01-.24.01-.06,0-.13,0-.19.01-.08,0-.16.01-.24.02-.07,0-.13.01-.2.02-.08,0-.17.02-.25.03-.06,0-.13.01-.19.02-.09.01-.19.03-.28.04-.06,0-.11.02-.17.02-.12.02-.24.04-.36.06-.03,0-.06,0-.1.02-.15.03-.31.06-.46.09-.05.01-.11.02-.16.03-.1.02-.2.04-.31.07-.07.01-.13.03-.19.05-.09.02-.19.04-.28.07-.07.02-.14.04-.21.06-.09.02-.18.05-.27.07-.07.02-.15.04-.22.07-.09.03-.17.05-.26.08-.07.02-.15.05-.22.07-.09.03-.17.06-.26.09-.08.03-.15.05-.23.08-.09.03-.18.07-.27.1-.07.03-.15.06-.22.09-.09.04-.18.07-.27.11-.07.03-.15.06-.22.09-.09.04-.18.08-.28.12-.07.03-.15.07-.22.1-.1.05-.2.1-.3.15-.07.03-.13.06-.2.1-.13.06-.26.13-.39.2-.04.02-.09.05-.13.07-.16.08-.31.17-.47.26-.06.04-.12.07-.19.11-.1.06-.21.12-.31.19-.07.04-.14.09-.21.14-.1.06-.19.12-.29.19-.07.05-.15.1-.22.15-.09.07-.19.13-.28.2-.07.05-.15.11-.22.16-.09.07-.18.14-.28.21-.07.06-.15.11-.23.17-.09.07-.18.14-.27.22-.08.06-.15.12-.22.18-.09.08-.18.15-.28.23-.07.06-.15.13-.22.19-.09.08-.19.17-.28.25-.07.07-.14.13-.21.2-.1.09-.19.18-.29.28-.07.07-.13.13-.2.19-.11.11-.21.22-.32.33-.06.06-.11.11-.17.17-.16.17-.32.34-.48.52,0,0,0,0,0,.01-.17.19-.34.36-.5.5-.28.25-.52.43-.75.54-.16.08-.3.12-.43.13-.03,0-.06,0-.09,0-.03,0-.05,0-.08,0-.03,0-.06-.02-.09-.03-.03,0-.06-.01-.09-.03-.03-.01-.07-.03-.1-.04-.03-.01-.06-.03-.1-.04-.03-.02-.07-.04-.11-.06-.04-.02-.07-.04-.1-.06-.04-.03-.08-.06-.12-.09-.04-.03-.07-.05-.11-.08-.04-.03-.08-.07-.13-.11-.04-.03-.08-.06-.12-.1-.04-.04-.09-.08-.13-.12-.04-.04-.08-.07-.12-.11-.04-.04-.09-.09-.13-.14-.05-.05-.09-.09-.14-.14-.16-.18-.33-.36-.49-.53-.05-.05-.1-.1-.15-.16-.11-.12-.23-.23-.34-.35-.06-.06-.13-.12-.19-.18-.1-.1-.2-.2-.3-.29-.07-.06-.14-.13-.21-.19-.1-.09-.19-.18-.29-.26-.07-.06-.14-.12-.21-.18-.1-.08-.19-.17-.29-.25-.07-.06-.14-.12-.21-.17-.1-.08-.19-.15-.29-.23-.07-.06-.14-.11-.21-.17-.1-.07-.19-.14-.29-.22-.07-.05-.14-.1-.21-.15-.1-.07-.2-.14-.3-.21-.07-.05-.14-.1-.21-.14-.1-.07-.21-.14-.31-.2-.07-.04-.13-.08-.19-.12-.11-.07-.23-.14-.34-.21-.05-.03-.11-.07-.16-.1-.15-.09-.31-.18-.46-.26-.01,0-.03-.01-.04-.02-.17-.09-.34-.18-.5-.26-.05-.02-.09-.05-.14-.07-.12-.06-.24-.12-.36-.17-.06-.03-.12-.06-.18-.08-.1-.05-.21-.1-.31-.14-.07-.03-.13-.06-.2-.08-.1-.04-.2-.08-.3-.12-.07-.03-.14-.05-.2-.08-.1-.04-.19-.07-.29-.11-.07-.03-.14-.05-.21-.07-.09-.03-.19-.06-.28-.1-.07-.02-.14-.04-.2-.07-.09-.03-.19-.06-.28-.09-.07-.02-.13-.04-.2-.06-.1-.03-.19-.05-.29-.08-.06-.02-.13-.03-.19-.05-.1-.03-.2-.05-.3-.07-.06-.01-.12-.03-.18-.04-.11-.03-.21-.05-.32-.07-.05-.01-.1-.02-.15-.03-.14-.03-.27-.05-.41-.08-.02,0-.04,0-.06-.01-.15-.03-.31-.05-.46-.08-.03,0-.07,0-.1-.01-.12-.02-.23-.03-.35-.05-.05,0-.1-.01-.16-.02-.1-.01-.19-.02-.29-.03-.06,0-.12-.01-.17-.02-.09,0-.17-.02-.26-.02-.06,0-.12,0-.18-.01-.08,0-.17-.01-.25-.02-.06,0-.12,0-.18,0-.08,0-.16,0-.24-.01-.06,0-.12,0-.18,0-.08,0-.16,0-.24,0-.06,0-.11,0-.17,0-.04,0-.08,0-.13,0-.35,0-.69,0-1.02.03-1.71.09-3.24.39-4.47.73-2.04.56-3.29,1.22-3.33,1.24h0s-.03.03-.05.04c-.54.32-.75.99-.5,1.56.01.02.02.05.03.07"/>
        <path class="st2" d="M107.3,42.17s-.01-.1-.02-.15c-.02-.09-.04-.19-.07-.27,0-.02-.01-.05-.03-.07-.01-.03-.03-.05-.04-.07-.17-.34-.46-.6-.84-.72-.54-.16-1.25-.37-2.09-.6-.84-.23-1.81-.48-2.89-.74-.29-.07-.59-.14-.9-.21-.8-.18-1.65-.36-2.52-.53-3.4-.67-7.31-1.22-11.03-1.22h0c-.31,0-.61.01-.92.02-.31,0-.61,0-.92.02-.29.01-.58.03-.87.05-.32.02-.63.03-.95.05-.28.02-.57.05-.85.07-.33.03-.65.05-.97.09-.26.03-.53.06-.79.09-.35.04-.69.07-1.03.12-.24.03-.47.06-.71.1-.37.05-.74.1-1.11.15-.21.03-.43.06-.64.1-.39.06-.78.11-1.17.18-.15.02-.3.05-.45.07-.45.07-.9.14-1.34.22-.04,0-.08.01-.12.02-1.65.28-3.28.57-4.87.83-.09.01-.17.03-.26.04-.42.07-.84.14-1.25.2-.15.02-.31.05-.46.07-.32.05-.64.09-.96.14-.24.03-.48.07-.71.1-.31.04-.61.08-.91.12-.24.03-.49.06-.73.09-.32.04-.64.07-.96.1-.21.02-.43.05-.64.06-.27.02-.53.04-.8.05-.26.02-.51.04-.76.05-.21.01-.4,0-.6.01-.31,0-.61.02-.91.02h-.01c-.33,0-.65,0-.99-.02-.11,0-.23-.01-.34-.01-.23,0-.45-.02-.68-.03-.13,0-.27-.02-.4-.03-.21-.01-.43-.03-.64-.05-.14-.01-.28-.03-.43-.04-.21-.02-.43-.04-.64-.07-.14-.01-.28-.03-.43-.05-.22-.03-.45-.05-.67-.08-.14-.02-.27-.03-.41-.05-.25-.03-.5-.07-.75-.1-.11-.02-.23-.03-.34-.05-.74-.11-1.48-.22-2.24-.34-.12-.02-.25-.04-.37-.06-.26-.04-.52-.08-.78-.13-.15-.03-.3-.05-.46-.08-.24-.04-.49-.08-.74-.13-.16-.03-.32-.05-.48-.08-.32-.06-.64-.11-.95-.17-.24-.04-.49-.09-.74-.13-.18-.03-.36-.06-.54-.09-.25-.04-.51-.09-.76-.13-.15-.02-.29-.05-.44-.07-.39-.07-.78-.13-1.18-.19,0,0,0,0-.01,0-.68-.11-1.36-.21-2.04-.31-.16-.02-.33-.05-.49-.07-1.27-.18-2.54-.34-3.82-.46-.21-.02-.43-.04-.64-.06-.64-.05-1.28-.1-1.91-.13-.79-.04-1.57-.06-2.36-.06-.19,0-.38,0-.58,0-.15,0-.31,0-.46,0-.19,0-.39.01-.58.02-.15,0-.3.01-.45.02-.21,0-.43.02-.65.04-.13,0-.26.01-.39.02-.32.02-.64.05-.96.08-.03,0-.05,0-.07,0-3.78.34-7.5,1.07-10.44,1.78-.2.05-.39.09-.58.14-.3.07-.6.15-.88.22-.14.04-.28.07-.42.11-.27.07-.54.14-.79.21-.12.03-.25.07-.37.1-.24.07-.47.13-.68.19-.29.08-.55.16-.79.23-.05.02-.1.03-.15.05-.06.02-.12.04-.18.05-.05.02-.1.04-.15.06-.05.02-.09.05-.14.07-.23.13-.42.32-.54.55-.06.11-.11.24-.14.36-.02.09-.04.18-.04.27,0,.03,0,.05,0,.08,0,.03,0,.05,0,.08,0,0,0,0,0,0,0,.05,0,.1.01.16l.46,2.86c.03.17.08.33.15.48.16.32.41.58.72.74.12.06.24.11.37.14.03,0,.06.01.09.01.03,0,.07,0,.1,0,.04,0,.08.01.12.02.01,0,.02,0,.03,0,.04,0,.07,0,.11,0h0c.1,0,.21-.01.33-.01.02,0,.05,0,.07,0,.09,0,.18,0,.27.01.04,0,.08,0,.12.01.09,0,.18.02.27.03.04,0,.08.01.12.02.13.02.27.05.41.08.6.14,1.29.38,2.06.78,0,0,.02,0,.03.01.06.03.12.07.18.1.1.06.2.11.31.17.1.06.21.12.32.19h0c.05.03.11.07.16.11.04.03.07.06.1.09.01.01.03.03.05.04.16.16.3.36.42.6.12.24.23.5.33.8.1.3.18.63.25.98.07.36.14.74.2,1.14.06.4.12.83.17,1.27s.11.9.16,1.37c.06.47.11.96.17,1.45.06.49.13,1,.21,1.5.05.32.1.65.16.97.03.16.06.32.09.49,0,.04.02.08.02.12.02.12.05.24.07.36.01.05.02.11.03.16.02.1.04.21.07.31.01.06.03.12.04.19.02.1.04.19.07.29.02.07.03.13.05.19.02.09.05.19.07.28.02.07.04.13.05.2.02.09.05.18.08.27.02.07.04.13.06.2.03.09.05.18.08.27.02.07.04.13.06.2.03.09.06.18.09.26.02.07.05.13.07.2.03.09.06.17.1.26.02.07.05.13.07.2.03.09.07.17.1.26.03.06.05.13.08.19.04.08.07.17.11.25.03.06.06.13.08.19.04.09.08.17.12.26.03.06.06.12.09.18.04.09.09.18.14.26.03.05.06.11.09.16.05.1.11.19.17.29.03.04.05.09.07.13.17.27.34.54.53.8.03.04.06.08.09.12.07.09.13.18.2.26.04.05.08.1.12.14.06.08.12.15.19.23.04.05.09.1.13.15.06.07.13.14.19.21.05.05.1.1.15.15.07.07.13.13.2.19.05.05.11.1.16.15.07.06.14.12.21.18.06.05.11.09.17.14.07.06.14.11.22.17.06.04.12.09.18.13.07.06.15.11.23.16.06.04.13.09.19.13.08.05.16.1.24.15.07.04.13.08.2.12.08.05.17.1.25.14.07.04.14.07.21.11.09.04.18.09.27.13.07.03.14.07.21.1.1.04.2.08.29.12.07.03.14.06.21.09.11.04.22.08.33.12.07.02.14.05.21.07.12.04.25.08.38.12.06.02.12.04.18.05.19.05.39.1.59.15.2.05.41.08.61.12.36.06.73.12,1.12.16.19.02.39.04.59.05.2.01.41.02.61.03.23,0,.47.02.71.02.14,0,.28,0,.42,0,.14,0,.28,0,.41,0,.13,0,.25,0,.38-.01.14,0,.28,0,.41-.01.12,0,.23-.01.35-.02.14,0,.28-.01.42-.02.11,0,.22-.01.33-.02.14,0,.28-.02.42-.03.1,0,.2-.02.31-.03.14-.01.28-.03.42-.04.09,0,.18-.02.28-.03.14-.02.29-.03.43-.05.08,0,.17-.02.25-.03.15-.02.29-.04.43-.06.07-.01.14-.02.21-.03.15-.02.31-.05.46-.07.06-.01.12-.02.18-.03.15-.03.31-.06.46-.08.05,0,.09-.02.14-.03.16-.03.33-.07.49-.1.03,0,.06-.01.09-.02.17-.04.34-.08.51-.12.02,0,.04-.01.06-.01.18-.05.35-.09.53-.14,0,0,0,0,0,0,8.45-2.38,10.71-8.47,12.48-13.26.31-.82.6-1.61.9-2.33.31-.72.63-1.38,1-1.94.02-.02.03-.05.05-.07.03-.05.06-.09.1-.14.05-.07.09-.14.14-.2.01-.02.03-.03.04-.05.07-.09.14-.18.22-.27.01-.02.03-.03.04-.05.07-.08.15-.16.22-.24.02-.01.03-.03.05-.04.08-.07.15-.15.24-.21.01-.01.03-.02.04-.03.08-.07.17-.13.26-.19.01,0,.03-.02.04-.02.09-.06.19-.12.28-.17.02-.01.05-.02.08-.04.09-.05.18-.09.27-.13.03-.01.07-.02.1-.04.09-.03.17-.07.26-.09.04-.01.09-.02.13-.03.09-.02.17-.05.26-.06.05,0,.11-.01.16-.02.08-.01.17-.03.26-.04.07,0,.14,0,.2,0,.08,0,.16-.01.24-.01.11,0,.21,0,.31.01.1,0,.2.02.3.03.14.02.28.04.41.07.64.14,1.17.44,1.64.84.1.09.21.18.3.28,1.2,1.25,1.92,3.32,2.79,5.66.07.2.15.4.23.6.05.14.11.29.16.43.12.31.25.63.38.94.07.17.14.34.21.5.07.15.13.31.2.47.11.24.22.48.33.72.29.6.6,1.2.96,1.78,1.44,2.4,3.5,4.66,6.79,6.23.21.1.42.19.63.29.09.04.17.07.26.11.44.18.9.35,1.38.5.08.03.17.06.26.08.54.17,1.09.32,1.68.45.31.07.63.14.96.2.33.06.67.12,1.01.17.46.07.93.12,1.42.17.72.07,1.48.13,2.28.16.5.02,1.02.03,1.55.03h0c.17,0,.33,0,.49-.01.15,0,.31,0,.46-.01.17,0,.33-.02.5-.04.13,0,.27-.02.4-.03.17-.02.33-.04.5-.06.12-.01.24-.03.35-.05.17-.03.33-.06.5-.09.1-.02.21-.04.31-.06.16-.04.32-.08.48-.12.09-.02.19-.04.28-.07.17-.05.34-.1.5-.16.07-.02.14-.04.21-.07.19-.06.36-.14.54-.21.04-.02.09-.03.13-.05.19-.08.37-.16.55-.25.03-.01.06-.03.09-.04.02-.01.04-.02.06-.03.05-.03.09-.06.14-.08.06-.03.12-.07.18-.1.19-.1.38-.21.55-.32.48-.31.92-.65,1.32-1.02,3.01-2.78,3.91-7.14,4.42-11.03.1-.78.19-1.54.27-2.26.06-.48.11-.95.17-1.39.03-.25.07-.5.1-.74.06-.39.12-.77.19-1.12.11-.56.25-1.06.42-1.48.23-.56.52-.98.9-1.22h0c.21-.13.4-.24.6-.35.02-.01.05-.03.07-.04.18-.1.36-.19.54-.27.03-.01.06-.03.09-.04.17-.08.34-.15.5-.21.03-.01.06-.02.09-.03.16-.06.32-.11.47-.16.02,0,.04-.01.07-.02.16-.05.31-.09.46-.12,0,0,.01,0,.02,0,.15-.03.29-.06.42-.08.01,0,.03,0,.04,0,.13-.02.26-.03.38-.04.02,0,.04,0,.06,0,.12,0,.23-.01.34-.01.02,0,.04,0,.06,0,.09,0,.18,0,.27,0,.07,0,.15,0,.22,0,.04,0,.08,0,.12-.01.06-.01.11-.03.17-.04.04-.01.07-.02.11-.03.06-.02.12-.05.18-.08.03-.01.06-.03.09-.04.08-.05.16-.1.24-.16h0c.07-.06.14-.13.21-.21.06-.07.12-.16.17-.24.1-.17.17-.37.21-.57,0,0,.26-1.64.46-2.85,0-.04,0-.09.01-.13,0-.03,0-.06,0-.09,0-.04,0-.09,0-.13M12.01,43.56c-.08-.54.67-1.09,1.67-1.24.26-.04.5-.04.73-.02.13.01.25.03.37.05.05-.01.09-.02.14-.03.98-.15,1.83.16,1.9.7.08.53-.65,1.09-1.62,1.24-.39.06-.76.04-1.07-.03-.05.01-.1.02-.16.03-.16.02-.32.03-.47.03-.79,0-1.42-.28-1.49-.73M34.84,68.49c-3.5.09-6.64-.53-8.24-1.78-.72-.56-1.32-1.12-1.85-1.7-.82-.91-1.43-1.9-1.92-3.14-.68-1.73-1.12-3.94-1.57-7.11-.35-2.48-.57-4.43-.63-6-.12-2.78.26-4.35,1.29-5.47h0c1.3-1.41,2.22-2.72,8.12-3.53.48-.07.95-.12,1.43-.17,3.09-.32,6.21-.32,9.31-.06,2.63.22,4.65.6,6.26,1.19.81.3,1.5.66,2.13,1.08,1.17.79,2.06,1.81,2.8,3.13.93,1.65,1.19,4.47.83,7.54-.28,2.35-.93,4.84-1.93,7.07-.01.03-.02.05-.03.08-.03.07-.07.14-.1.21-.62,1.32-1.36,2.54-2.23,3.56-.61.72-1.28,1.34-2.01,1.83-.35.24-.71.46-1.09.67-.02,0-.04.02-.06.03-.07.04-.14.07-.2.1-2.99,1.58-6.82,2.38-10.31,2.47M97.15,54.81c-.36,2.55-.72,4.48-1.2,6.04-.66,2.15-1.57,3.59-3.04,4.96-.34.31-.7.62-1.1.94-3.33,2.6-13.42,2.45-19.34-1.15-.19-.12-.38-.24-.56-.36-.08-.06-.17-.12-.25-.18-3.4-2.49-5.45-7.77-6.02-12.49-.29-2.36-.2-4.58.27-6.24.15-.52.33-.98.56-1.38.74-1.32,1.62-2.34,2.79-3.13,1.86-1.26,4.44-1.92,8.4-2.26.21-.02.42-.03.62-.04,2.57-.19,5.14-.19,7.71.03.32.03.64.06.96.09.48.05.97.11,1.45.17.21.03.39.06.59.09,5.36.82,6.27,2.08,7.52,3.45,1.02,1.12,1.39,2.68,1.28,5.42-.06,1.58-.29,3.55-.64,6.05M104.96,44.1c-.29.06-.62.07-.97.03-.07-.01-.14-.03-.21-.04-.3.07-.65.09-1.01.04-.98-.13-1.72-.67-1.65-1.21.07-.54.91-.87,1.89-.74.07,0,.13.02.19.04.06-.01.13-.02.2-.03.26-.04.54-.04.84,0,1.01.13,1.76.67,1.7,1.21-.04.35-.43.61-.97.71"/>
        <path class="st2" d="M89.24,72.43c-.16.02-.31.03-.47.05-.05,0-.1,0-.15.01-.33.03-.67.06-1,.09-.41.03-.82.04-1.25.05-.14,0-.27,0-.41,0-.01,0-.02,0-.03,0-.02,0-.04,0-.06,0-1.38-.02-2.71-.09-3.97-.23-1.21-.13-2.37-.31-3.46-.55-3.19-.71-5.69-1.85-7.69-3.25-.22-.15-.44-.31-.65-.47-.63-.48-1.2-.99-1.73-1.52-.53-.53-1-1.07-1.44-1.62-.37-.47-.7-.94-1.02-1.42-.21-.32-.41-.64-.59-.96-.75-1.28-1.33-2.57-1.83-3.79-.7-.07-1.41-.12-2.12-.15-.67-.03-1.35-.05-2.03-.05h-.04c-.21,0-.43,0-.64,0-.17,0-.33,0-.5,0-.22,0-.43.02-.65.03-.15,0-.3,0-.45.02-.24.01-.48.03-.72.04-.12,0-.25.01-.37.02-.36.03-.72.06-1.08.1-1,2.46-2.34,5.16-4.6,7.52-.52.54-1.09,1.07-1.72,1.57-1.83,1.45-4.13,2.68-7.1,3.52-2.48.7-5.42,1.12-8.93,1.16-.06,0-.12,0-.18,0-.11,0-.23,0-.35,0-.24,0-.47-.01-.7-.02-.46-.02-.92-.05-1.36-.09-.25-.03-.51-.04-.76-.08,0,0,0,0,0,0-.67.94-1.26,1.92-1.78,2.92,0,0,0,.01,0,.02-.21.4-.4.81-.58,1.22-.84,1.9-1.4,3.9-1.66,5.97-.1.84-.16,1.69-.16,2.55,0,.4.01.8.03,1.19.07,1.19.24,2.36.5,3.5.05.22.1.43.16.65.11.43.24.86.38,1.28.42,1.27.96,2.51,1.61,3.69.22.4.44.79.69,1.17.48.77,1.01,1.52,1.58,2.25.29.37.58.72.89,1.08.31.35.63.7.95,1.04.33.34.67.67,1.02,1,3.84,3.6,8.89,6.41,14.66,8.05.52.15,1.06.29,1.59.42.27.06.54.13.81.19.54.12,1.09.23,1.64.33.55.1,1.11.19,1.67.27,1.13.16,2.27.27,3.43.34.87.05,1.75.08,2.64.08h0c.14,0,.27,0,.4,0,.17,0,.33,0,.49,0,.13,0,.25,0,.38-.01.17,0,.33,0,.5-.01.12,0,.25-.01.37-.02.17,0,.33-.02.5-.03.12,0,.24-.02.36-.02.17-.01.34-.02.51-.04.12,0,.24-.02.35-.03.17-.01.34-.03.51-.04.12-.01.23-.03.35-.04.17-.02.34-.03.51-.06.11-.01.23-.03.34-.04.17-.02.34-.04.5-.06.11-.02.23-.03.34-.05.17-.02.34-.05.5-.07.11-.02.21-.04.32-.05.17-.03.34-.06.51-.09.1-.02.2-.04.3-.06.18-.03.35-.07.53-.1.1-.02.21-.04.31-.06.17-.03.34-.07.51-.11.1-.02.2-.05.29-.07.17-.04.35-.08.52-.12.08-.02.17-.04.25-.06.18-.05.37-.09.55-.14.08-.02.17-.05.25-.07.18-.05.36-.1.54-.15.07-.02.14-.04.22-.06.19-.06.38-.11.56-.17.08-.03.16-.05.24-.08.18-.06.36-.11.54-.17.07-.02.14-.05.21-.07.19-.06.37-.12.56-.19.07-.02.14-.05.22-.08.18-.06.36-.13.54-.19.06-.02.12-.05.18-.07.19-.07.38-.14.57-.22.04-.02.08-.03.12-.05.2-.08.41-.16.61-.25.04-.02.08-.03.12-.05.2-.09.4-.17.6-.26.03-.01.06-.03.09-.04.21-.09.42-.19.62-.28.04-.02.07-.03.11-.05.2-.09.4-.19.59-.29.04-.02.07-.04.11-.05.19-.1.39-.2.58-.3.03-.01.06-.03.09-.05.2-.1.4-.21.59-.32,0,0,.02,0,.03-.01.21-.12.43-.24.64-.36.02-.01.05-.03.07-.04.2-.11.39-.23.58-.35.01,0,.03-.02.04-.03.2-.12.4-.25.6-.37.01,0,.02-.02.03-.02.2-.13.4-.26.59-.39,0,0,.01,0,.02-.01.41-.27.81-.56,1.2-.84,0,0,.01,0,.01-.01,4.64-3.42,8.04-7.85,9.62-12.82.11-.33.2-.67.29-1,0-.01,0-.02,0-.03.17-.64.31-1.28.41-1.93,0-.02,0-.05,0-.07.18-1.08.27-2.19.27-3.31,0-4.61-1.52-8.94-4.19-12.72-.05,0-.1.01-.15.02M88.58,91.42h0c-.17.18-.39.28-.64.29-.39.01-.73-.24-.86-.6-.01-.04-.04-.08-.05-.13l-.31-1.3c-.04-.16-.24-.22-.36-.11l-1.1,1.01c-.06.06-.12.11-.19.17-.2.19-.4.37-.61.55-6.83,5.98-15.59,9.27-24.68,9.26-.69,0-1.38-.03-2.07-.07-4.35-.24-8.59-1.23-12.56-2.91-3.57-1.51-6.9-3.58-9.87-6.16l-.11-.1-.08-.07c-.1-.09-.2-.18-.31-.27-.14-.12-.28-.25-.42-.38l-.31-.29-.66-.61c-.12-.11-.32-.05-.36.11l-.07.31-.23.98c-.02.1-.07.19-.12.27-.13.21-.33.35-.57.4-.07.02-.15.04-.23.03-.1,0-.19-.03-.28-.07-.02,0-.05,0-.07-.02-.11-.05-.21-.12-.29-.21-.16-.17-.25-.41-.24-.65,0-.18.02-.35.04-.52.07-.62.22-1.21.46-1.76.3-.68.7-1.28,1.2-1.81.05-.05.09-.1.14-.15.53-.54,1.15-.97,1.85-1.29t0,0c.67-.31,1.39-.48,2.12-.54.06,0,.11-.01.17-.02h.09s0,0,0,0c.07,0,.14.01.2.03.02,0,.04.01.07.02.05.01.09.03.13.05.02.01.04.02.06.03.05.03.1.06.14.1,0,0,.01.01.02.02.05.05.09.1.13.15.01.02.02.03.03.05.02.04.05.09.06.14,0,.02.02.04.02.06.01.05.02.11.03.16,0,.02,0,.03,0,.05,0,0,0,0,0,0,0,0,0,.02,0,.03,0,.09-.01.19-.04.28,0,0,0,.02,0,.03-.02.05-.03.11-.05.16-.1.22-.31.37-.55.42h-.08s0,.01,0,.01l-.5.09-1.03.19c-.18.03-.24.25-.11.38l.86.79.28.26c.16.15.34.31.53.47.15.13.3.26.46.4,6.17,5.23,14.02,8.11,22.11,8.11,8.19,0,16.12-2.92,22.31-8.25.38-.32.73-.65.96-.86l1.1-1.02c.13-.12.07-.34-.1-.38l-1.37-.29-.1-.02s-.08-.03-.13-.05c-.07-.02-.13-.05-.19-.09-.05-.03-.1-.07-.14-.11-.01-.01-.02-.03-.04-.04-.03-.03-.06-.07-.08-.1-.01-.01-.02-.03-.03-.04-.03-.05-.06-.11-.07-.17-.03-.1-.05-.21-.04-.32.02-.49.42-.87.91-.87h.03c.82.03,1.61.22,2.36.56.58.27,1.11.61,1.57,1.03.09.08.18.16.26.24.11.11.2.22.3.34.43.49.78,1.04,1.03,1.64.18.42.31.87.39,1.34.05.29.09.58.1.88.01.27-.07.53-.24.71M56.49,66.98c.06.09.11.18.15.28,0,.02.01.04.02.06.03.09.06.18.08.27,0,.02.01.05.02.07.02.11.03.22.03.33,0,0,0,.02,0,.03,0,.02,0,.03,0,.05,0,.1-.01.21-.03.31,0,.01,0,.03,0,.04,0,.01,0,.03,0,.04-.16.7-.72,1.26-1.41,1.41-.01,0-.02,0-.03,0-.13.03-.26.05-.4.05-.01,0-.03,0-.04,0-.04,0-.08,0-.13-.01-.11,0-.21-.03-.31-.05-.05-.01-.09-.03-.14-.04-.1-.03-.19-.07-.27-.12-.04-.02-.08-.04-.11-.06-.11-.07-.22-.15-.31-.24,0,0-.01-.01-.02-.02-.1-.1-.18-.21-.26-.33-.02-.03-.04-.07-.06-.11-.05-.09-.09-.18-.12-.27-.02-.05-.03-.1-.04-.14-.03-.1-.04-.2-.05-.3,0-.05-.01-.09-.01-.14,0-.02,0-.03,0-.05,0-.14.01-.27.04-.4,0,0,0-.02,0-.02.1-.48.4-.89.79-1.15,0,0,0,0,.01,0,.18-.12.38-.22.6-.27.02,0,.04,0,.05,0,.02,0,.04,0,.06-.01.1-.02.2-.03.3-.03.01,0,.03,0,.04,0,0,0,.01,0,.02,0,.11,0,.22.01.33.03.02,0,.05.01.07.02.1.02.2.05.29.09,0,0,.02,0,.03.01.1.04.19.1.28.15.02.01.04.03.06.04.09.06.17.13.24.2,0,0,.01.01.02.02.07.07.13.15.19.23.01.02.03.04.05.06M62.28,66.8c.07-.08.15-.16.23-.23.04-.03.08-.07.12-.1.04-.03.09-.06.14-.08.05-.03.11-.06.17-.09.04-.02.09-.03.13-.05.07-.03.14-.05.21-.07.04-.01.08-.02.12-.03.03,0,.05-.01.08-.02.03,0,.06,0,.1,0,.05,0,.1-.01.15-.01.04,0,.08,0,.12.01.05,0,.11,0,.16.02.09.01.17.03.25.06.05.01.1.03.14.05.08.03.17.07.24.12.04.02.08.04.11.06.11.07.21.15.3.24,0,0,0,0,0,0,.09.09.17.2.24.31.02.04.04.08.06.11.04.08.08.16.12.24.02.05.03.09.04.14.02.08.04.17.06.26,0,.05.01.1.02.16,0,.04.01.08.01.13,0,.05-.01.1-.02.15,0,.03,0,.06,0,.09,0,.03-.01.05-.02.08,0,.05-.02.09-.03.13-.02.07-.04.14-.06.21-.02.04-.03.09-.05.13-.03.06-.06.11-.09.17-.03.05-.05.09-.08.13-.03.05-.07.08-.1.13-.07.08-.14.15-.22.22-.04.04-.09.08-.13.11-.04.03-.08.05-.12.08-.06.03-.12.07-.18.1-.04.02-.08.03-.12.05-.07.03-.14.05-.22.07-.04,0-.08.02-.12.02-.03,0-.06.02-.08.02-.03,0-.07,0-.1,0-.05,0-.09.01-.14.01-.04,0-.08,0-.12-.01-.06,0-.11,0-.16-.02-.08-.01-.17-.03-.25-.06-.05-.01-.1-.03-.15-.05-.08-.03-.17-.08-.24-.12-.04-.02-.07-.04-.11-.06-.22-.15-.41-.34-.55-.56-.02-.03-.04-.07-.06-.11-.04-.08-.09-.16-.12-.25-.02-.05-.03-.1-.04-.14-.02-.08-.04-.16-.06-.25,0-.05-.01-.11-.02-.16,0-.04-.01-.08-.01-.12,0-.05.01-.09.01-.14,0-.03,0-.07,0-.1,0-.03.01-.06.02-.08,0-.04.02-.08.02-.12.02-.07.04-.15.07-.22.01-.04.03-.08.05-.12.03-.06.06-.12.09-.17.03-.04.05-.09.08-.13.03-.04.07-.08.1-.12"/>
        <path class="st2" d="M48.62,55.98h0c.04-.82-.69-1.47-1.5-1.37,0,0-.01,0-.02,0-.35.05-.7.1-1.04.16-.14.02-.28.04-.42.07-.35.06-.69.13-1.03.21-.55.14-1.06.61-1.5,1.02-1.06,1.02-1.94,2.32-3.14,3.13-4.05,2.75-5.8,2.02-7.14-2.8-.63-2.22-.58-4.4.94-6.3,2.58-3.22,6.89-3.19,9.47.19.92,1.2,1.7,1.53,2.93.64.35-.25.77-.43,1.14-.65,2.5-1.5,2.68-3.1.43-5.08-2.27-1.99-4.86-3.4-7.95-3.58-4.8-.29-9.39.61-13.82,2.45-1.82.76-2.68,2.16-2.93,4.07-.43,3.26.02,6.41,1.02,9.53,1.53,4.79,4.95,7.5,9.79,7.94,2.73.25,5.67-.13,8.34-.87.71-.2,1.37-.48,1.98-.84.2-.12.4-.24.59-.38.1-.07.19-.14.28-.21.18-.14.36-.29.53-.45,1.8-1.65,2.88-4.1,3.04-6.86"/>
        <path class="st2" d="M90.21,43.13c-2.6-.9-3.89.1-4.68,2.77-.4,1.4-.96,2.78-1.63,4.09-.62,1.17-1.7,1.94-3.1,1.73-1.43-.23-2.06-1.37-2.38-2.65-.31-1.22-.43-2.49-.75-3.71-.33-1.21-.94-2.23-2.35-2.42-2.74-.36-7.25,3.13-7.51,5.93-.42,4.65,1.34,8.63,4.01,12.27.66.91,1.55,1.7,2.48,2.36,1.22.88,2.65,1.24,3.96.18,1.33-1.08.75-2.32.09-3.55-1.41-2.56-2.65-5.09-3.97-7.7-.28-.54-.49-1.22-.6-1.85-.03-.2.08-.4.27-.46,0,0,0,0,0,0,.17-.06.36,0,.47.14.33.43.68.85.97,1.3,1.18,1.83,2.26,3.72,3.53,5.5,1.25,1.78,2.15,1.92,3.81.48,1.47-1.26,2.69-2.81,4.08-4.15.49-.47,1.1-.8,1.69-1.16.19-.12.44-.06.56.12l.03.04c.1.15.1.36-.02.5-.36.45-.72.88-1.06,1.34-1.62,2.15-3.33,4.23-4.76,6.5-.52.83-.85,2.55-.39,3.07.69.78,2.2,1.22,3.3,1.13,2.87-.24,4.93-1.99,6.48-4.33,1.94-2.94,2.84-6.23,3.14-9.72.4-4.64-.58-5.98-5.67-7.74"/>
      </g>
    </g>
  </g>
</svg>